{"glyphs":{"0":{"ha":1158,"x_min":79,"x_max":1079,"o":"m 260 1000 l 899 1000 q 1026 947 974 1000 q 1079 819 1079 894 l 1079 181 q 1026 53 1079 106 q 899 0 974 0 l 260 0 q 132 53 185 0 q 79 181 79 106 l 79 819 q 132 947 79 894 q 260 1000 185 1000 m 879 850 l 260 850 q 238 841 247 850 q 229 819 229 832 l 229 304 l 879 850 m 279 150 l 899 150 q 920 159 911 150 q 929 181 929 168 l 929 696 l 279 150 z "},"1":{"ha":543,"x_min":1,"x_max":463,"o":"m 1 663 l 283 1000 l 463 1000 l 463 0 l 313 0 l 313 800 l 197 663 l 1 663 z "},"2":{"ha":1153,"x_min":79,"x_max":1079,"o":"m 260 1000 l 899 1000 q 1026 947 974 1000 q 1079 819 1079 894 l 1079 592 q 1026 464 1079 517 q 899 411 974 411 l 260 411 q 238 402 247 411 q 229 381 229 393 l 229 181 q 238 159 229 168 q 260 150 247 150 l 1079 150 l 1079 0 l 79 0 l 79 381 q 132 508 79 456 q 260 561 185 561 l 899 561 q 920 570 911 561 q 929 592 929 579 l 929 819 q 920 841 929 832 q 899 850 911 850 l 260 850 q 238 841 247 850 q 229 819 229 832 l 229 761 l 79 761 l 79 819 q 132 947 79 894 q 260 1000 185 1000 z "},"3":{"ha":1147,"x_min":74,"x_max":1074,"o":"m 1014 538 q 1074 404 1074 485 l 1074 181 q 1021 53 1074 106 q 893 0 968 0 l 254 0 q 126 53 179 0 q 74 181 74 106 l 74 222 l 224 222 l 224 181 q 233 159 224 168 q 254 150 242 150 l 893 150 q 915 159 906 150 q 924 181 924 168 l 924 404 q 915 426 924 417 q 893 435 906 435 l 254 435 l 254 585 l 851 585 q 873 594 864 585 q 882 615 882 603 l 882 819 q 873 841 882 832 q 851 850 864 850 l 254 850 q 233 841 242 850 q 224 819 224 832 l 224 764 l 74 764 l 74 819 q 126 947 74 894 q 254 1000 179 1000 l 851 1000 q 979 947 926 1000 q 1032 819 1032 894 l 1032 615 q 1014 538 1032 576 z "},"4":{"ha":1014,"x_min":8,"x_max":967,"o":"m 819 404 l 967 404 l 967 254 l 819 254 l 819 0 l 669 0 l 669 254 l 8 254 l 8 404 l 669 1000 l 819 1000 l 819 404 m 669 764 l 226 404 l 669 404 l 669 764 z "},"5":{"ha":1153,"x_min":79,"x_max":1079,"o":"m 229 819 l 229 619 q 238 598 229 607 q 260 589 247 589 l 899 589 q 1026 536 974 589 q 1079 408 1079 483 l 1079 181 q 1026 53 1079 106 q 899 0 974 0 l 260 0 q 132 53 185 0 q 79 181 79 106 l 79 239 l 229 239 l 229 181 q 238 159 229 168 q 260 150 247 150 l 899 150 q 920 159 911 150 q 929 181 929 168 l 929 408 q 920 430 929 421 q 899 439 911 439 l 79 439 l 79 589 l 82 589 q 79 619 79 608 l 79 1000 l 1079 1000 l 1079 850 l 260 850 q 238 841 247 850 q 229 819 229 832 z "},"6":{"ha":1139,"x_min":79,"x_max":1079,"o":"m 732 589 l 899 589 q 1026 536 974 589 q 1079 408 1079 483 l 1079 181 q 1026 53 1079 106 q 899 0 974 0 l 260 0 q 132 53 185 0 q 79 181 79 106 l 79 819 q 132 947 79 894 q 260 1000 185 1000 l 913 1000 l 913 850 l 260 850 q 238 841 247 850 q 229 819 229 832 l 229 619 q 238 598 229 607 q 260 589 247 589 l 732 589 m 929 181 l 929 408 q 920 430 929 421 q 899 439 911 439 l 229 439 l 229 181 q 238 159 229 168 q 260 150 247 150 l 899 150 q 920 159 911 150 q 929 181 929 168 z "},"7":{"ha":917,"x_min":4,"x_max":838,"o":"m 18 1000 l 657 1000 q 785 947 732 1000 q 838 819 838 894 l 838 0 l 688 0 l 688 819 q 678 841 688 832 q 657 850 669 850 l 4 850 l 4 1000 l 18 1000 z "},"8":{"ha":1158,"x_min":79,"x_max":1079,"o":"m 1079 850 l 1079 619 q 1044 514 1079 560 q 1079 408 1079 468 l 1079 181 q 1026 53 1079 106 q 899 0 974 0 l 260 0 q 132 53 185 0 q 79 181 79 106 l 79 408 q 114 514 79 468 q 79 619 79 560 l 79 819 q 132 947 79 894 q 260 1000 185 1000 l 899 1000 q 1017 957 965 1000 q 1079 850 1068 914 m 929 181 l 929 408 q 920 430 929 421 q 899 439 911 439 l 260 439 q 238 430 247 439 q 229 408 229 421 l 229 181 q 238 159 229 168 q 260 150 247 150 l 899 150 q 920 159 911 150 q 929 181 929 168 m 929 604 l 929 818 q 920 840 929 831 q 899 849 911 849 l 260 849 q 238 840 247 849 q 229 818 229 831 l 229 604 q 238 583 229 592 q 260 574 247 574 l 899 574 q 920 583 911 574 q 929 604 929 592 z "},"9":{"ha":1150,"x_min":71,"x_max":1071,"o":"m 418 411 l 251 411 q 124 464 176 411 q 71 592 71 517 l 71 819 q 124 947 71 894 q 251 1000 176 1000 l 890 1000 q 1018 947 965 1000 q 1071 819 1071 894 l 1071 181 q 1018 53 1071 106 q 890 0 965 0 l 251 0 q 135 43 185 0 q 74 150 85 86 l 890 150 q 912 159 903 150 q 921 181 921 168 l 921 381 q 912 402 921 393 q 890 411 903 411 l 418 411 m 221 819 l 221 592 q 230 570 221 579 q 251 561 239 561 l 921 561 l 921 819 q 912 841 921 832 q 890 850 903 850 l 251 850 q 230 841 239 850 q 221 819 221 832 z "}," ":{"ha":403,"x_min":0,"x_max":0,"o":""},"!":{"ha":306,"x_min":81,"x_max":231,"o":"m 231 0 l 81 0 l 81 150 l 231 150 l 231 0 m 81 278 l 81 1000 l 231 1000 l 231 278 l 81 278 z "},"\"":{"ha":517,"x_min":82,"x_max":436,"o":"m 232 999 l 232 774 l 82 774 l 82 999 l 232 999 m 436 999 l 436 774 l 286 774 l 286 999 l 436 999 z "},"#":{"ha":1107,"x_min":44,"x_max":1063,"o":"m 1063 775 l 1063 625 l 897 625 l 817 378 l 1019 378 l 1019 228 l 769 228 l 700 0 l 550 0 l 619 228 l 321 228 l 251 0 l 101 0 l 171 228 l 44 228 l 44 378 l 218 378 l 299 625 l 88 625 l 88 775 l 346 775 l 421 996 l 571 996 l 496 775 l 794 775 l 869 996 l 1019 996 l 944 775 l 1063 775 m 368 378 l 667 378 l 747 625 l 449 625 l 368 378 z "},"$":{"ha":1094,"x_min":47,"x_max":1047,"o":"m 1047 819 l 1047 761 l 897 761 l 897 819 q 888 841 897 832 q 867 850 879 850 l 622 850 l 622 575 l 867 575 q 994 522 942 575 q 1047 394 1047 469 l 1047 181 q 994 53 1047 106 q 867 0 942 0 l 622 0 l 622 -150 l 472 -150 l 472 0 l 228 0 q 100 53 153 0 q 47 181 47 106 l 47 239 l 197 239 l 197 181 q 206 159 197 168 q 228 150 215 150 l 472 150 l 472 425 l 228 425 q 100 478 153 425 q 47 606 47 531 l 47 819 q 100 947 47 894 q 228 1000 153 1000 l 472 1000 l 472 1150 l 622 1150 l 622 1000 l 867 1000 q 994 947 942 1000 q 1047 819 1047 894 m 867 425 l 622 425 l 622 150 l 867 150 q 888 159 879 150 q 897 181 897 168 l 897 394 q 888 416 897 407 q 867 425 879 425 m 363 575 l 472 575 l 472 850 l 228 850 q 206 841 215 850 q 197 819 197 832 l 197 606 q 206 584 197 593 q 228 575 215 575 l 363 575 z "},"%":{"ha":1342,"x_min":67,"x_max":1272,"o":"m 1163 1000 l 1183 1000 l 1183 822 l 204 0 l 183 0 l 183 178 l 1163 1000 m 247 1000 l 372 1000 q 500 947 447 1000 q 553 819 553 894 l 553 708 q 500 581 553 633 q 372 528 447 528 l 247 528 q 119 581 172 528 q 67 708 67 633 l 67 819 q 119 947 67 894 q 247 1000 172 1000 m 219 650 l 400 650 q 422 659 413 650 q 431 681 431 668 l 431 847 q 422 869 431 860 q 400 878 413 878 l 219 878 q 198 869 207 878 q 189 847 189 860 l 189 681 q 198 659 189 668 q 219 650 207 650 m 967 471 l 1092 471 q 1219 418 1167 471 q 1272 290 1272 365 l 1272 179 q 1219 51 1272 104 q 1092 -1 1167 -1 l 967 -1 q 839 51 892 -1 q 786 179 786 104 l 786 290 q 839 418 786 365 q 967 471 892 471 m 939 121 l 1119 121 q 1141 130 1132 121 q 1150 151 1150 139 l 1150 318 q 1141 340 1150 331 q 1119 349 1132 349 l 939 349 q 917 340 926 349 q 908 318 908 331 l 908 151 q 917 130 908 139 q 939 121 926 121 z "},"&":{"ha":1303,"x_min":74,"x_max":1250,"o":"m 1074 251 l 1250 149 l 1250 4 l 1060 113 q 995 31 1040 63 q 893 0 950 0 l 254 0 q 126 53 179 0 q 74 181 74 106 l 74 464 q 99 534 74 499 q 164 569 124 569 q 129 675 129 596 l 129 819 q 182 947 129 894 q 310 1000 235 1000 l 851 1000 q 969 957 918 1000 q 1032 850 1021 914 l 1032 751 l 882 751 l 882 818 q 873 840 882 831 q 851 849 864 849 l 310 849 q 288 840 297 849 q 279 818 279 831 l 279 635 l 924 310 l 924 481 l 1074 481 l 1074 251 m 254 150 l 893 150 q 919 167 913 150 l 269 494 l 254 494 q 233 485 242 494 q 224 464 224 476 l 224 181 q 233 159 224 168 q 254 150 242 150 z "},"'":{"ha":311,"x_min":82,"x_max":232,"o":"m 232 999 l 232 774 l 82 774 l 82 999 l 232 999 z "},"(":{"ha":385,"x_min":72,"x_max":311,"o":"m 253 150 l 311 150 l 311 0 l 253 0 q 125 53 178 0 q 72 181 72 106 l 72 819 q 125 947 72 894 q 253 1000 178 1000 l 311 1000 l 311 850 l 253 850 q 231 841 240 850 q 222 819 222 832 l 222 181 q 231 159 222 168 q 253 150 240 150 z "},")":{"ha":386,"x_min":78,"x_max":317,"o":"m 78 0 l 78 150 l 136 150 q 158 159 149 150 q 167 181 167 168 l 167 819 q 158 841 167 832 q 136 850 149 850 l 78 850 l 78 1000 l 136 1000 q 263 947 210 1000 q 317 819 317 894 l 317 181 q 263 53 317 106 q 136 0 210 0 l 78 0 z "},"*":{"ha":682,"x_min":35,"x_max":647,"o":"m 600 865 l 647 722 l 463 663 l 576 504 l 456 417 l 340 574 l 226 417 l 106 504 l 219 663 l 35 722 l 81 865 l 265 804 l 265 999 l 415 999 l 415 804 l 600 865 z "},"+":{"ha":601,"x_min":24,"x_max":579,"o":"m 224 688 l 374 688 l 374 486 l 579 486 l 579 336 l 374 336 l 374 132 l 224 132 l 224 336 l 24 336 l 24 486 l 224 486 l 224 688 z "},",":{"ha":268,"x_min":75,"x_max":225,"o":"m 75 150 l 225 150 l 225 0 q 182 -117 225 -67 q 75 -178 139 -167 l 75 150 z "},"-":{"ha":718,"x_min":82,"x_max":638,"o":"m 638 486 l 638 336 l 82 336 l 82 486 l 638 486 z "},".":{"ha":297,"x_min":75,"x_max":225,"o":"m 225 150 l 225 0 l 75 0 l 75 150 l 225 150 z "},"/":{"ha":724,"x_min":8,"x_max":717,"o":"m 8 178 l 696 1000 l 717 1000 l 717 822 l 29 0 l 8 0 l 8 178 z "},":":{"ha":297,"x_min":75,"x_max":225,"o":"m 75 150 l 225 150 l 225 0 l 75 0 l 75 150 m 225 817 l 225 667 l 75 667 l 75 817 l 225 817 z "},";":{"ha":268,"x_min":71,"x_max":221,"o":"m 221 817 l 221 667 l 71 667 l 71 817 l 221 817 m 71 150 l 221 150 l 221 0 q 178 -117 221 -67 q 71 -178 135 -167 l 71 150 z "},"<":{"ha":657,"x_min":7,"x_max":578,"o":"m 176 411 l 578 179 l 578 6 l 7 336 l 7 486 l 578 815 l 578 642 l 176 411 z "},"=":{"ha":886,"x_min":82,"x_max":804,"o":"m 804 349 l 804 199 l 82 199 l 82 349 l 804 349 m 804 613 l 804 463 l 82 463 l 82 613 l 804 613 z "},">":{"ha":660,"x_min":82,"x_max":653,"o":"m 82 3 l 82 176 l 483 408 l 82 639 l 82 813 l 653 483 l 653 333 l 82 3 z "},"?":{"ha":942,"x_min":43,"x_max":914,"o":"m 43 1000 l 733 1000 q 861 947 808 1000 q 914 819 914 894 l 914 564 q 861 436 914 489 q 733 383 808 383 l 374 383 q 352 374 361 383 q 343 353 343 365 l 343 276 l 193 276 l 193 353 q 246 481 193 428 q 374 533 299 533 l 733 533 q 755 542 746 533 q 764 564 764 551 l 764 819 q 755 841 764 832 q 733 850 746 850 l 43 850 l 43 1000 m 343 0 l 193 0 l 193 150 l 343 150 l 343 0 z "},"@":{"ha":1154,"x_min":79,"x_max":1079,"o":"m 517 736 l 642 736 q 769 683 717 736 q 822 556 822 631 l 822 386 l 929 386 l 929 819 q 920 841 929 832 q 899 850 911 850 l 260 850 q 238 841 247 850 q 229 819 229 832 l 229 181 q 238 159 229 168 q 260 150 247 150 l 1079 150 l 1079 0 l 260 0 q 132 53 185 0 q 79 181 79 106 l 79 819 q 132 947 79 894 q 260 1000 185 1000 l 899 1000 q 1026 947 974 1000 q 1079 819 1079 894 l 1079 264 l 517 264 q 389 317 442 264 q 336 444 336 369 l 336 556 q 389 683 336 631 q 517 736 442 736 m 489 386 l 700 386 l 700 583 q 691 605 700 596 q 669 614 682 614 l 489 614 q 467 605 476 614 q 458 583 458 596 l 458 417 q 467 395 458 404 q 489 386 476 386 z "},"A":{"ha":1161,"x_min":81,"x_max":1081,"o":"m 261 1000 l 900 1000 q 1028 947 975 1000 q 1081 819 1081 894 l 1081 0 l 931 0 l 931 350 l 231 350 l 231 0 l 81 0 l 81 819 q 133 947 81 894 q 261 1000 186 1000 m 231 500 l 931 500 l 931 819 q 922 841 931 832 q 900 850 913 850 l 261 850 q 240 841 249 850 q 231 819 231 832 l 231 500 z "},"B":{"ha":1156,"x_min":82,"x_max":1082,"o":"m 1022 538 q 1082 404 1082 485 l 1082 181 q 1029 53 1082 106 q 901 0 976 0 l 82 0 l 82 1000 l 860 1000 q 988 947 935 1000 q 1040 819 1040 894 l 1040 615 q 1022 538 1040 576 m 860 850 l 263 850 q 241 841 250 850 q 232 819 232 832 l 232 615 q 241 594 232 603 q 263 585 250 585 l 860 585 q 881 594 872 585 q 890 615 890 603 l 890 819 q 881 841 890 832 q 860 850 872 850 m 932 181 l 932 404 q 923 426 932 417 q 901 435 914 435 l 263 435 q 241 426 250 435 q 232 404 232 417 l 232 181 q 241 159 232 168 q 263 150 250 150 l 901 150 q 923 159 914 150 q 932 181 932 168 z "},"C":{"ha":1142,"x_min":78,"x_max":1075,"o":"m 1075 850 l 258 850 q 237 841 246 850 q 228 819 228 832 l 228 181 q 237 159 228 168 q 258 150 246 150 l 1075 150 l 1075 0 l 258 0 q 131 53 183 0 q 78 181 78 106 l 78 819 q 131 947 78 894 q 258 1000 183 1000 l 1075 1000 l 1075 850 z "},"D":{"ha":1158,"x_min":81,"x_max":1081,"o":"m 81 1000 l 900 1000 q 1028 947 975 1000 q 1081 819 1081 894 l 1081 181 q 1028 53 1081 106 q 900 0 975 0 l 81 0 l 81 1000 m 931 181 l 931 819 q 922 841 931 832 q 900 850 913 850 l 261 850 q 240 841 249 850 q 231 819 231 832 l 231 181 q 240 159 231 168 q 261 150 249 150 l 900 150 q 922 159 913 150 q 931 181 931 168 z "},"E":{"ha":1064,"x_min":81,"x_max":997,"o":"m 997 1000 l 997 850 l 231 850 l 231 575 l 847 575 l 847 425 l 231 425 l 231 150 l 997 150 l 997 0 l 81 0 l 81 1000 l 997 1000 z "},"F":{"ha":1004,"x_min":81,"x_max":997,"o":"m 81 1000 l 997 1000 l 997 850 l 231 850 l 231 575 l 847 575 l 847 425 l 231 425 l 231 0 l 81 0 l 81 1000 z "},"G":{"ha":1153,"x_min":78,"x_max":1078,"o":"m 1078 819 l 1078 760 l 928 760 l 928 819 q 919 841 928 832 q 897 850 910 850 l 258 850 q 237 841 246 850 q 228 819 228 832 l 228 181 q 237 159 228 168 q 258 150 246 150 l 897 150 q 919 159 910 150 q 928 181 928 168 l 928 397 l 692 397 l 692 547 l 1078 547 l 1078 181 q 1025 53 1078 106 q 897 0 972 0 l 258 0 q 131 53 183 0 q 78 181 78 106 l 78 819 q 131 947 78 894 q 258 1000 183 1000 l 897 1000 q 1025 947 972 1000 q 1078 819 1078 894 z "},"H":{"ha":1182,"x_min":79,"x_max":1103,"o":"m 953 1000 l 1103 1000 l 1103 0 l 953 0 l 953 425 l 229 425 l 229 0 l 79 0 l 79 1000 l 229 1000 l 229 575 l 953 575 l 953 1000 z "},"I":{"ha":306,"x_min":79,"x_max":229,"o":"m 79 0 l 79 1000 l 229 1000 l 229 0 l 79 0 z "},"J":{"ha":1083,"x_min":6,"x_max":1006,"o":"m 856 181 l 856 1000 l 1006 1000 l 1006 181 q 953 53 1006 106 q 825 0 900 0 l 186 0 q 58 53 111 0 q 6 181 6 106 l 6 278 l 156 278 l 156 181 q 165 159 156 168 q 186 150 174 150 l 825 150 q 847 159 838 150 q 856 181 856 168 z "},"K":{"ha":1107,"x_min":79,"x_max":1042,"o":"m 864 1000 l 1042 1000 l 1042 979 l 640 500 l 1042 21 l 1042 0 l 864 0 l 507 425 l 229 425 l 229 0 l 79 0 l 79 1000 l 229 1000 l 229 575 l 507 575 l 864 1000 z "},"L":{"ha":1082,"x_min":79,"x_max":1079,"o":"m 79 0 l 79 1001 l 229 1001 l 229 150 l 1079 150 l 1079 0 l 79 0 z "},"M":{"ha":1289,"x_min":78,"x_max":1211,"o":"m 644 538 l 1032 1000 l 1211 1000 l 1211 0 l 1061 0 l 1061 800 l 644 304 l 228 800 l 228 0 l 78 0 l 78 1000 l 256 1000 l 644 538 z "},"N":{"ha":1156,"x_min":78,"x_max":1078,"o":"m 928 200 l 928 1000 l 1078 1000 l 1078 0 l 900 0 l 228 800 l 228 0 l 78 0 l 78 1000 l 256 1000 l 928 200 z "},"O":{"ha":1150,"x_min":75,"x_max":1075,"o":"m 256 1000 l 894 1000 q 1022 947 969 1000 q 1075 819 1075 894 l 1075 181 q 1022 53 1075 106 q 894 0 969 0 l 256 0 q 128 53 181 0 q 75 181 75 106 l 75 819 q 128 947 75 894 q 256 1000 181 1000 m 256 150 l 894 150 q 916 159 907 150 q 925 181 925 168 l 925 819 q 916 841 925 832 q 894 850 907 850 l 256 850 q 234 841 243 850 q 225 819 225 832 l 225 181 q 234 159 225 168 q 256 150 243 150 z "},"P":{"ha":1099,"x_min":78,"x_max":1078,"o":"m 78 999 l 897 999 q 1025 945 972 999 q 1078 818 1078 892 l 1078 538 q 1025 410 1078 464 q 897 357 972 357 l 258 357 q 228 360 247 357 l 228 0 l 78 0 l 78 999 m 928 538 l 928 818 q 919 840 928 831 q 897 849 910 849 l 258 849 q 237 840 246 849 q 228 818 228 831 l 228 538 q 237 516 228 525 q 258 507 246 507 l 897 507 q 919 516 910 507 q 928 538 928 525 z "},"Q":{"ha":1228,"x_min":75,"x_max":1200,"o":"m 1072 150 l 1200 150 l 1200 0 l 256 0 q 128 53 181 0 q 75 181 75 106 l 75 819 q 128 947 75 894 q 256 1000 181 1000 l 894 1000 q 1022 947 969 1000 q 1075 819 1075 894 l 1075 181 q 1072 150 1075 169 m 256 150 l 894 150 q 916 159 907 150 q 925 181 925 168 l 925 819 q 916 841 925 832 q 894 850 907 850 l 256 850 q 234 841 243 850 q 225 819 225 832 l 225 181 q 234 159 225 168 q 256 150 243 150 z "},"R":{"ha":1146,"x_min":76,"x_max":1076,"o":"m 1076 818 l 1076 538 q 1024 410 1076 464 q 896 357 971 357 l 794 357 l 1076 21 l 1076 0 l 899 0 l 599 357 l 257 357 q 226 360 246 357 l 226 0 l 76 0 l 76 999 l 896 999 q 1024 945 971 999 q 1076 818 1076 892 m 257 507 l 896 507 q 917 516 908 507 q 926 538 926 525 l 926 818 q 917 840 926 831 q 896 849 908 849 l 257 849 q 235 840 244 849 q 226 818 226 831 l 226 538 q 235 516 226 525 q 257 507 244 507 z "},"S":{"ha":1142,"x_min":71,"x_max":1071,"o":"m 1071 819 l 1071 761 l 921 761 l 921 819 q 912 841 921 832 q 890 850 903 850 l 251 850 q 230 841 239 850 q 221 819 221 832 l 221 606 q 230 584 221 593 q 251 575 239 575 l 890 575 q 1018 522 965 575 q 1071 394 1071 469 l 1071 181 q 1018 53 1071 106 q 890 0 965 0 l 251 0 q 124 53 176 0 q 71 181 71 106 l 71 239 l 221 239 l 221 181 q 230 159 221 168 q 251 150 239 150 l 890 150 q 912 159 903 150 q 921 181 921 168 l 921 394 q 912 416 921 407 q 890 425 903 425 l 251 425 q 124 478 176 425 q 71 606 71 531 l 71 819 q 124 947 71 894 q 251 1000 176 1000 l 890 1000 q 1018 947 965 1000 q 1071 819 1071 894 z "},"T":{"ha":1054,"x_min":28,"x_max":1028,"o":"m 28 1000 l 1028 1000 l 1028 850 l 603 850 l 603 0 l 453 0 l 453 850 l 28 850 l 28 1000 z "},"U":{"ha":1150,"x_min":75,"x_max":1075,"o":"m 925 181 l 925 1000 l 1075 1000 l 1075 181 q 1022 53 1075 106 q 894 0 969 0 l 256 0 q 128 53 181 0 q 75 181 75 106 l 75 1000 l 225 1000 l 225 181 q 234 159 225 168 q 256 150 243 150 l 894 150 q 916 159 907 150 q 925 181 925 168 z "},"V":{"ha":1393,"x_min":49,"x_max":1353,"o":"m 701 169 l 1181 1000 l 1353 1000 l 776 0 l 626 0 l 49 1000 l 222 1000 l 701 169 z "},"W":{"ha":1638,"x_min":49,"x_max":1589,"o":"m 1429 1000 l 1589 1000 l 1225 0 l 1103 0 l 818 779 l 535 0 l 532 1 l 533 0 l 413 0 l 49 1000 l 208 1000 l 474 271 l 739 1000 l 899 1000 l 1164 271 l 1429 1000 z "},"X":{"ha":1128,"x_min":64,"x_max":1064,"o":"m 886 1000 l 1064 1000 l 1064 979 l 661 500 l 1064 21 l 1064 0 l 886 0 l 564 383 l 242 0 l 64 0 l 64 21 l 465 500 l 64 979 l 64 1000 l 242 1000 l 564 617 l 886 1000 z "},"Y":{"ha":1119,"x_min":24,"x_max":1096,"o":"m 918 1000 l 1096 1000 l 635 375 l 635 0 l 485 0 l 485 375 l 24 1000 l 200 1000 l 560 544 l 918 1000 z "},"Z":{"ha":1140,"x_min":71,"x_max":1071,"o":"m 71 850 l 71 1000 l 1071 1000 l 1071 822 l 271 150 l 1071 150 l 1071 0 l 71 0 l 71 178 l 871 850 l 71 850 z "},"[":{"ha":382,"x_min":75,"x_max":314,"o":"m 75 0 l 75 1000 l 314 1000 l 314 850 l 225 850 l 225 150 l 314 150 l 314 0 l 75 0 z "},"\\":{"ha":722,"x_min":7,"x_max":715,"o":"m 7 1000 l 28 1000 l 715 178 l 715 0 l 694 0 l 7 822 l 7 1000 z "},"]":{"ha":383,"x_min":71,"x_max":310,"o":"m 71 850 l 71 1000 l 310 1000 l 310 0 l 71 0 l 71 150 l 160 150 l 160 850 l 71 850 z "},"_":{"ha":1150,"x_min":75,"x_max":1075,"o":"m 1075 0 l 1075 -150 l 75 -150 l 75 0 l 1075 0 z "},"`":{"ha":296,"x_min":44,"x_max":250,"o":"m 194 1374 l 250 1149 l 100 1149 l 44 1374 l 194 1374 z "},"a":{"ha":964,"x_min":72,"x_max":892,"o":"m 711 806 q 839 753 786 806 q 892 625 892 700 l 892 0 l 253 0 q 125 53 178 0 q 72 181 72 106 l 72 478 l 742 478 l 742 625 q 733 647 742 638 q 711 656 724 656 l 72 656 l 72 806 l 711 806 m 742 150 l 742 328 l 222 328 l 222 181 q 231 159 222 168 q 253 150 240 150 l 742 150 z "},"b":{"ha":926,"x_min":75,"x_max":894,"o":"m 714 806 q 842 753 789 806 q 894 625 894 700 l 894 181 q 842 53 894 106 q 714 0 789 0 l 75 0 l 75 1069 l 225 1069 l 225 806 l 714 806 m 744 181 l 744 625 q 735 647 744 638 q 714 656 726 656 l 256 656 q 234 647 243 656 q 225 625 225 638 l 225 181 q 234 159 225 168 q 256 150 243 150 l 714 150 q 735 159 726 150 q 744 181 744 168 z "},"c":{"ha":965,"x_min":71,"x_max":890,"o":"m 251 150 l 890 150 l 890 0 l 251 0 q 124 53 176 0 q 71 181 71 106 l 71 625 q 124 753 71 700 q 251 806 176 806 l 888 806 l 888 656 l 251 656 q 230 647 239 656 q 221 625 221 638 l 221 181 q 230 159 221 168 q 251 150 239 150 z "},"d":{"ha":926,"x_min":32,"x_max":851,"o":"m 701 1069 l 851 1069 l 851 0 l 213 0 q 85 53 138 0 q 32 181 32 106 l 32 625 q 85 753 32 700 q 213 806 138 806 l 701 806 l 701 1069 m 213 150 l 671 150 q 692 159 683 150 q 701 181 701 168 l 701 625 q 692 647 701 638 q 671 656 683 656 l 213 656 q 191 647 200 656 q 182 625 182 638 l 182 181 q 191 159 182 168 q 213 150 200 150 z "},"e":{"ha":961,"x_min":71,"x_max":890,"o":"m 710 806 q 838 753 785 806 q 890 625 890 700 l 890 328 l 221 328 l 221 181 q 230 159 221 168 q 251 150 239 150 l 890 150 l 890 0 l 251 0 q 124 53 176 0 q 71 181 71 106 l 71 625 q 124 753 71 700 q 251 806 176 806 l 710 806 m 221 478 l 740 478 l 740 625 q 731 647 740 638 q 710 656 722 656 l 251 656 q 230 647 239 656 q 221 625 221 638 l 221 478 z "},"f":{"ha":565,"x_min":74,"x_max":554,"o":"m 254 919 q 233 910 242 919 q 224 889 224 901 l 224 806 l 554 806 l 554 656 l 224 656 l 224 0 l 74 0 l 74 444 l 74 889 q 126 1017 74 964 q 254 1069 179 1069 l 554 1069 l 554 919 l 254 919 z "},"g":{"ha":949,"x_min":57,"x_max":876,"o":"m 876 307 l 876 306 l 876 -139 q 824 -267 876 -214 q 696 -319 771 -319 l 199 -319 l 199 -169 l 696 -169 q 717 -160 708 -169 q 726 -139 726 -151 l 726 0 l 238 0 q 110 53 163 0 q 57 181 57 106 l 57 625 q 110 753 57 700 q 238 806 163 806 l 696 806 q 824 753 771 806 q 876 625 876 700 l 876 307 m 238 150 l 696 150 q 717 159 708 150 q 726 181 726 168 l 726 625 q 717 647 726 638 q 696 656 708 656 l 238 656 q 216 647 225 656 q 207 625 207 638 l 207 181 q 216 159 207 168 q 238 150 225 150 z "},"h":{"ha":928,"x_min":75,"x_max":894,"o":"m 714 806 q 841 753 788 806 q 894 625 894 700 l 894 0 l 744 0 l 744 625 q 735 647 744 638 q 714 656 726 656 l 256 656 q 234 647 243 656 q 225 625 225 638 l 225 0 l 75 0 l 75 1069 l 225 1069 l 225 806 l 714 806 z "},"i":{"ha":289,"x_min":72,"x_max":222,"o":"m 72 0 l 72 806 l 222 806 l 222 0 l 72 0 m 72 1069 l 222 1069 l 222 919 l 72 919 l 72 1069 z "},"j":{"ha":332,"x_min":-260,"x_max":265,"o":"m 115 1069 l 265 1069 l 265 919 l 115 919 l 115 1069 m 265 803 l 265 306 l 265 -139 q 213 -267 265 -214 q 85 -319 160 -319 l -260 -319 l -260 -169 l 85 -169 q 106 -160 97 -169 q 115 -139 115 -151 l 115 803 l 265 803 z "},"k":{"ha":897,"x_min":75,"x_max":885,"o":"m 707 806 l 885 806 l 885 785 l 539 403 l 885 21 l 885 0 l 707 0 l 406 328 l 225 328 l 225 0 l 75 0 l 75 1069 l 225 1069 l 225 478 l 406 478 l 707 806 z "},"l":{"ha":419,"x_min":72,"x_max":403,"o":"m 72 625 l 72 1069 l 222 1069 l 222 181 q 231 159 222 168 q 253 150 240 150 l 403 150 l 403 0 l 253 0 q 125 53 178 0 q 72 181 72 106 l 72 625 z "},"m":{"ha":1358,"x_min":75,"x_max":1285,"o":"m 1104 806 q 1232 753 1179 806 q 1285 625 1285 700 l 1285 0 l 1136 0 l 1136 625 q 1127 647 1136 638 q 1104 656 1118 656 l 786 656 q 765 647 774 656 q 756 625 756 638 l 756 0 l 606 0 l 606 625 q 597 647 606 638 q 575 656 588 656 l 256 656 q 234 647 243 656 q 225 625 225 638 l 225 0 l 75 0 l 75 806 l 1104 806 z "},"n":{"ha":967,"x_min":75,"x_max":894,"o":"m 714 806 q 842 753 789 806 q 894 625 894 700 l 894 0 l 744 0 l 744 625 q 735 647 744 638 q 714 656 726 656 l 256 656 q 234 647 243 656 q 225 625 225 638 l 225 0 l 75 0 l 75 806 l 714 806 z "},"o":{"ha":961,"x_min":71,"x_max":890,"o":"m 251 806 l 710 806 q 838 753 785 806 q 890 625 890 700 l 890 181 q 838 53 890 106 q 710 0 785 0 l 251 0 q 124 53 176 0 q 71 181 71 106 l 71 625 q 124 753 71 700 q 251 806 176 806 m 710 656 l 251 656 q 230 647 239 656 q 221 625 221 638 l 221 181 q 230 159 221 168 q 251 150 239 150 l 710 150 q 731 159 722 150 q 740 181 740 168 l 740 625 q 731 647 740 638 q 710 656 722 656 z "},"p":{"ha":922,"x_min":75,"x_max":894,"o":"m 714 806 q 842 753 789 806 q 894 625 894 700 l 894 181 q 842 53 894 106 q 714 0 789 0 l 225 0 l 225 -319 l 75 -319 l 75 806 l 714 806 m 744 181 l 744 625 q 735 647 744 638 q 714 656 726 656 l 256 656 q 234 647 243 656 q 225 625 225 638 l 225 181 q 234 159 225 168 q 256 150 243 150 l 714 150 q 735 159 726 150 q 744 181 744 168 z "},"q":{"ha":922,"x_min":28,"x_max":847,"o":"m 28 625 q 81 753 28 700 q 208 806 133 806 l 847 806 l 847 -319 l 697 -319 l 697 0 l 208 0 q 81 53 133 0 q 28 181 28 106 l 28 625 m 178 625 l 178 181 q 187 159 178 168 q 208 150 196 150 l 667 150 q 688 159 679 150 q 697 181 697 168 l 697 625 q 688 647 697 638 q 667 656 679 656 l 208 656 q 187 647 196 656 q 178 625 178 638 z "},"r":{"ha":711,"x_min":72,"x_max":703,"o":"m 253 806 l 703 806 l 703 656 l 253 656 q 231 647 240 656 q 222 625 222 638 l 222 0 l 72 0 l 72 181 l 72 625 q 125 753 72 700 q 253 806 178 806 z "},"s":{"ha":953,"x_min":67,"x_max":886,"o":"m 886 625 l 886 594 l 736 594 l 736 625 q 727 647 736 638 q 706 656 718 656 l 247 656 q 226 647 235 656 q 217 625 217 638 l 217 508 q 226 487 217 496 q 247 478 235 478 l 706 478 q 833 425 781 478 q 886 297 886 372 l 886 181 q 833 53 886 106 q 706 0 781 0 l 247 0 q 119 53 172 0 q 67 181 67 106 l 67 211 l 217 211 l 217 181 q 226 159 217 168 q 247 150 235 150 l 706 150 q 727 159 718 150 q 736 181 736 168 l 736 297 q 727 319 736 310 q 706 328 718 328 l 247 328 q 119 381 172 328 q 67 508 67 433 l 67 625 q 119 753 67 700 q 247 806 172 806 l 706 806 q 833 753 781 806 q 886 625 886 700 z "},"t":{"ha":569,"x_min":74,"x_max":554,"o":"m 554 656 l 224 656 l 224 181 q 233 159 224 168 q 254 150 242 150 l 554 150 l 554 0 l 254 0 q 126 53 179 0 q 74 181 74 106 l 74 625 l 74 1069 l 224 1069 l 224 806 l 554 806 l 554 656 z "},"u":{"ha":965,"x_min":74,"x_max":893,"o":"m 743 806 l 893 806 l 893 181 q 840 53 893 106 q 713 0 788 0 l 254 0 q 126 53 179 0 q 74 181 74 106 l 74 806 l 224 806 l 224 181 q 233 159 224 168 q 254 150 242 150 l 713 150 q 734 159 725 150 q 743 181 743 168 l 743 806 z "},"v":{"ha":1097,"x_min":29,"x_max":1068,"o":"m 896 806 l 1068 806 l 624 0 l 474 0 l 29 806 l 203 806 l 549 169 l 896 806 z "},"w":{"ha":1472,"x_min":49,"x_max":1439,"o":"m 1279 806 l 1439 806 l 1136 0 l 1014 0 l 743 599 l 488 0 l 485 1 l 486 0 l 365 0 l 49 806 l 208 806 l 426 271 l 658 806 l 829 806 l 1075 271 l 1279 806 z "},"x":{"ha":961,"x_min":64,"x_max":897,"o":"m 719 806 l 897 806 l 897 785 l 578 410 l 897 21 l 897 0 l 719 0 l 481 293 l 242 0 l 64 0 l 64 21 l 382 410 l 64 785 l 64 806 l 242 806 l 481 526 l 719 806 z "},"y":{"ha":951,"x_min":58,"x_max":878,"o":"m 878 308 l 878 306 l 878 -139 q 825 -267 878 -214 q 697 -319 772 -319 l 200 -319 l 200 -169 l 697 -169 q 719 -160 710 -169 q 728 -139 728 -151 l 728 0 l 239 0 q 111 53 164 0 q 58 181 58 106 l 58 803 l 208 803 l 208 181 q 217 159 208 168 q 239 150 226 150 l 697 150 q 719 159 710 150 q 728 181 728 168 l 728 803 l 878 803 l 878 308 z "},"z":{"ha":969,"x_min":75,"x_max":894,"o":"m 75 656 l 75 806 l 894 806 l 894 628 l 275 150 l 894 150 l 894 0 l 75 0 l 75 178 l 694 656 l 75 656 z "},"{":{"ha":401,"x_min":32,"x_max":332,"o":"m 243 428 l 243 181 q 252 159 243 168 q 274 150 261 150 l 332 150 l 332 0 l 274 0 q 146 53 199 0 q 93 181 93 106 l 93 397 l 32 433 l 32 583 l 93 618 l 93 819 q 146 947 93 894 q 274 1000 199 1000 l 332 1000 l 332 850 l 274 850 q 252 841 261 850 q 243 819 243 832 l 243 585 l 146 508 l 243 428 z "},"|":{"ha":297,"x_min":75,"x_max":225,"o":"m 75 -151 l 75 1150 l 225 1150 l 225 -151 l 75 -151 z "},"}":{"ha":401,"x_min":71,"x_max":371,"o":"m 160 181 l 160 428 l 257 508 l 160 585 l 160 819 q 151 841 160 832 q 129 850 142 850 l 71 850 l 71 1000 l 129 1000 q 257 947 204 1000 q 310 819 310 894 l 310 618 l 371 583 l 371 433 l 310 397 l 310 181 q 257 53 310 106 q 129 0 204 0 l 71 0 l 71 150 l 129 150 q 151 159 142 150 q 160 181 160 168 z "},"~":{"ha":561,"x_min":33,"x_max":522,"o":"m 414 414 q 522 450 468 414 l 522 347 q 414 322 464 322 q 278 369 365 322 q 136 417 190 417 q 33 385 53 417 l 33 489 q 136 508 79 508 q 278 464 190 508 q 414 414 367 419 z "},"¡":{"ha":292,"x_min":74,"x_max":224,"o":"m 224 1000 l 224 850 l 74 850 l 74 1000 l 224 1000 m 224 0 l 74 0 l 74 722 l 224 722 l 224 0 z "},"¢":{"ha":883,"x_min":46,"x_max":863,"o":"m 863 669 l 531 669 l 531 150 l 863 150 l 863 0 l 531 0 l 531 -151 l 381 -151 l 381 0 l 226 0 q 99 53 151 0 q 46 181 46 106 l 46 639 q 99 767 46 714 q 226 819 151 819 l 381 819 l 381 997 l 531 997 l 531 819 l 863 819 l 863 669 m 381 150 l 381 669 l 226 669 q 205 660 214 669 q 196 639 196 651 l 196 181 q 205 159 196 168 q 226 150 214 150 l 381 150 z "},"£":{"ha":1019,"x_min":54,"x_max":954,"o":"m 954 778 l 804 778 l 804 819 q 795 841 804 832 q 774 850 786 850 l 374 850 q 352 841 361 850 q 343 819 343 832 l 343 575 l 807 575 l 807 425 l 343 425 l 343 150 l 954 150 l 954 0 l 54 0 l 54 150 l 193 150 l 193 425 l 54 425 l 54 575 l 193 575 l 193 819 q 246 947 193 894 q 374 1000 299 1000 l 774 1000 q 901 947 849 1000 q 954 819 954 894 l 954 778 z "},"¨":{"ha":535,"x_min":75,"x_max":461,"o":"m 461 1299 l 461 1149 l 311 1149 l 311 1299 l 461 1299 m 225 1299 l 225 1149 l 75 1149 l 75 1299 l 225 1299 z "},"°":{"ha":610,"x_min":63,"x_max":549,"o":"m 243 1000 l 368 1000 q 496 947 443 1000 q 549 819 549 894 l 549 708 q 496 581 549 633 q 368 528 443 528 l 243 528 q 115 581 168 528 q 63 708 63 633 l 63 819 q 115 947 63 894 q 243 1000 168 1000 m 215 650 l 396 650 q 417 659 408 650 q 426 681 426 668 l 426 847 q 417 869 426 860 q 396 878 408 878 l 215 878 q 194 869 203 878 q 185 847 185 860 l 185 681 q 194 659 185 668 q 215 650 203 650 z "},"´":{"ha":296,"x_min":46,"x_max":251,"o":"m 46 1149 l 101 1374 l 251 1374 l 196 1149 l 46 1149 z "},"¶":{"ha":1157,"x_min":78,"x_max":1078,"o":"m 78 818 q 131 945 78 892 q 258 999 183 999 l 1078 999 l 1078 0 l 928 0 l 928 357 l 788 357 l 788 0 l 638 0 l 638 357 l 258 357 q 131 410 183 357 q 78 538 78 464 l 78 818 m 788 849 l 788 507 l 928 507 l 928 849 l 788 849 m 228 818 l 228 538 q 237 516 228 525 q 258 507 246 507 l 638 507 l 638 849 l 258 849 q 237 840 246 849 q 228 818 228 831 z "},"¸":{"ha":296,"x_min":46,"x_max":251,"o":"m 46 -225 l 101 0 l 251 0 l 196 -225 l 46 -225 z "},"¿":{"ha":938,"x_min":26,"x_max":897,"o":"m 897 0 l 207 0 q 79 53 132 0 q 26 181 26 106 l 26 436 q 79 564 26 511 q 207 617 132 617 l 567 617 q 588 626 579 617 q 597 647 597 635 l 597 732 l 747 732 l 747 647 q 694 519 747 572 q 567 467 642 467 l 207 467 q 185 458 194 467 q 176 436 176 449 l 176 181 q 185 159 176 168 q 207 150 194 150 l 897 150 l 897 0 m 747 1000 l 747 850 l 597 850 l 597 1000 l 747 1000 z "},"À":{"ha":1161,"x_min":81,"x_max":1081,"o":"m 261 1000 l 900 1000 q 1028 947 975 1000 q 1081 819 1081 894 l 1081 0 l 931 0 l 931 350 l 231 350 l 231 0 l 81 0 l 81 819 q 133 947 81 894 q 261 1000 186 1000 m 231 500 l 931 500 l 931 819 q 922 841 931 832 q 900 850 913 850 l 261 850 q 240 841 249 850 q 231 819 231 832 l 231 500 m 628 1364 l 683 1139 l 533 1139 l 478 1364 l 628 1364 z "},"Á":{"ha":1161,"x_min":81,"x_max":1081,"o":"m 261 1000 l 900 1000 q 1028 947 975 1000 q 1081 819 1081 894 l 1081 0 l 931 0 l 931 350 l 231 350 l 231 0 l 81 0 l 81 819 q 133 947 81 894 q 261 1000 186 1000 m 231 500 l 931 500 l 931 819 q 922 841 931 832 q 900 850 913 850 l 261 850 q 240 841 249 850 q 231 819 231 832 l 231 500 m 478 1138 l 533 1363 l 683 1363 l 628 1138 l 478 1138 z "},"Â":{"ha":1161,"x_min":81,"x_max":1081,"o":"m 261 1000 l 900 1000 q 1028 947 975 1000 q 1081 819 1081 894 l 1081 0 l 931 0 l 931 350 l 231 350 l 231 0 l 81 0 l 81 819 q 133 947 81 894 q 261 1000 186 1000 m 231 500 l 931 500 l 931 819 q 922 841 931 832 q 900 850 913 850 l 261 850 q 240 841 249 850 q 231 819 231 832 l 231 500 m 514 1138 l 411 1138 l 529 1333 l 632 1333 l 750 1138 l 646 1138 l 581 1243 l 514 1138 z "},"Ã":{"ha":1161,"x_min":81,"x_max":1081,"o":"m 261 1000 l 900 1000 q 1028 947 975 1000 q 1081 819 1081 894 l 1081 0 l 931 0 l 931 350 l 231 350 l 231 0 l 81 0 l 81 819 q 133 947 81 894 q 261 1000 186 1000 m 231 500 l 931 500 l 931 819 q 922 841 931 832 q 900 850 913 850 l 261 850 q 240 841 249 850 q 231 819 231 832 l 231 500 m 717 1236 q 825 1272 771 1236 l 825 1169 q 717 1144 767 1144 q 581 1192 668 1144 q 439 1239 493 1239 q 336 1207 356 1239 l 336 1311 q 439 1331 382 1331 q 581 1286 493 1331 q 717 1236 669 1242 z "},"Ä":{"ha":1161,"x_min":81,"x_max":1081,"o":"m 261 1000 l 900 1000 q 1028 947 975 1000 q 1081 819 1081 894 l 1081 0 l 931 0 l 931 350 l 231 350 l 231 0 l 81 0 l 81 819 q 133 947 81 894 q 261 1000 186 1000 m 231 500 l 931 500 l 931 819 q 922 841 931 832 q 900 850 913 850 l 261 850 q 240 841 249 850 q 231 819 231 832 l 231 500 m 774 1275 l 774 1125 l 624 1125 l 624 1275 l 774 1275 m 538 1275 l 538 1125 l 388 1125 l 388 1275 l 538 1275 z "},"Å":{"ha":1161,"x_min":81,"x_max":1081,"o":"m 261 1000 l 900 1000 q 1028 947 975 1000 q 1081 819 1081 894 l 1081 0 l 931 0 l 931 350 l 231 350 l 231 0 l 81 0 l 81 819 q 133 947 81 894 q 261 1000 186 1000 m 231 500 l 931 500 l 931 819 q 922 841 931 832 q 900 850 913 850 l 261 850 q 240 841 249 850 q 231 819 231 832 l 231 500 m 542 1363 l 619 1363 q 672 1341 650 1363 q 694 1289 694 1319 l 694 1214 q 672 1162 694 1183 q 619 1140 650 1140 l 542 1140 q 489 1162 511 1140 q 467 1214 467 1183 l 467 1289 q 489 1341 467 1319 q 542 1363 511 1363 m 535 1196 l 626 1196 q 639 1210 639 1196 l 639 1293 q 626 1307 639 1307 l 535 1307 q 522 1293 522 1307 l 522 1210 q 535 1196 522 1196 z "},"Æ":{"ha":1910,"x_min":75,"x_max":1842,"o":"m 1075 850 l 1075 575 l 1692 575 l 1692 425 l 1075 425 l 1075 150 l 1842 150 l 1842 0 l 925 0 l 925 350 l 225 350 l 225 0 l 75 0 l 75 819 q 128 947 75 894 q 256 1000 181 1000 l 1842 1000 l 1842 850 l 1075 850 m 925 500 l 925 819 q 916 841 925 832 q 894 850 907 850 l 256 850 q 234 841 243 850 q 225 819 225 832 l 225 500 l 925 500 z "},"Ç":{"ha":1142,"x_min":78,"x_max":1075,"o":"m 1075 850 l 258 850 q 237 841 246 850 q 228 819 228 832 l 228 181 q 237 159 228 168 q 258 150 246 150 l 1075 150 l 1075 0 l 674 0 l 618 -225 l 468 -225 l 524 0 l 258 0 q 131 53 183 0 q 78 181 78 106 l 78 819 q 131 947 78 894 q 258 1000 183 1000 l 1075 1000 l 1075 850 z "},"È":{"ha":1064,"x_min":81,"x_max":997,"o":"m 997 1000 l 997 850 l 231 850 l 231 575 l 847 575 l 847 425 l 231 425 l 231 150 l 997 150 l 997 0 l 81 0 l 81 1000 l 997 1000 m 579 1364 l 635 1139 l 485 1139 l 429 1364 l 579 1364 z "},"É":{"ha":1064,"x_min":81,"x_max":997,"o":"m 997 1000 l 997 850 l 231 850 l 231 575 l 847 575 l 847 425 l 231 425 l 231 150 l 997 150 l 997 0 l 81 0 l 81 1000 l 997 1000 m 429 1139 l 485 1364 l 635 1364 l 579 1139 l 429 1139 z "},"Ê":{"ha":1064,"x_min":81,"x_max":997,"o":"m 997 1000 l 997 850 l 231 850 l 231 575 l 847 575 l 847 425 l 231 425 l 231 150 l 997 150 l 997 0 l 81 0 l 81 1000 l 997 1000 m 465 1138 l 363 1138 l 481 1333 l 583 1333 l 701 1138 l 597 1138 l 532 1243 l 465 1138 z "},"Ë":{"ha":1064,"x_min":81,"x_max":997,"o":"m 997 1000 l 997 850 l 231 850 l 231 575 l 847 575 l 847 425 l 231 425 l 231 150 l 997 150 l 997 0 l 81 0 l 81 1000 l 997 1000 m 725 1289 l 725 1139 l 575 1139 l 575 1289 l 725 1289 m 489 1289 l 489 1139 l 339 1139 l 339 1289 l 489 1289 z "},"Ì":{"ha":306,"x_min":50,"x_max":256,"o":"m 79 0 l 79 1000 l 229 1000 l 229 0 l 79 0 m 200 1364 l 256 1139 l 106 1139 l 50 1364 l 200 1364 z "},"Í":{"ha":306,"x_min":50,"x_max":256,"o":"m 79 0 l 79 1000 l 229 1000 l 229 0 l 79 0 m 50 1139 l 106 1364 l 256 1364 l 200 1139 l 50 1139 z "},"Î":{"ha":306,"x_min":-17,"x_max":322,"o":"m 79 0 l 79 1000 l 229 1000 l 229 0 l 79 0 m 86 1138 l -17 1138 l 101 1333 l 204 1333 l 322 1138 l 218 1138 l 153 1243 l 86 1138 z "},"Ï":{"ha":306,"x_min":-40,"x_max":346,"o":"m 79 0 l 79 1000 l 229 1000 l 229 0 l 79 0 m 346 1289 l 346 1139 l 196 1139 l 196 1289 l 346 1289 m 110 1289 l 110 1139 l -40 1139 l -40 1289 l 110 1289 z "},"Ñ":{"ha":1156,"x_min":78,"x_max":1078,"o":"m 928 200 l 928 1000 l 1078 1000 l 1078 0 l 900 0 l 228 800 l 228 0 l 78 0 l 78 1000 l 256 1000 l 928 200 m 714 1236 q 822 1272 768 1236 l 822 1169 q 714 1144 764 1144 q 578 1192 665 1144 q 436 1239 490 1239 q 333 1207 353 1239 l 333 1311 q 436 1331 379 1331 q 578 1286 490 1331 q 714 1236 667 1242 z "},"Ò":{"ha":1150,"x_min":75,"x_max":1075,"o":"m 256 1000 l 894 1000 q 1022 947 969 1000 q 1075 819 1075 894 l 1075 181 q 1022 53 1075 106 q 894 0 969 0 l 256 0 q 128 53 181 0 q 75 181 75 106 l 75 819 q 128 947 75 894 q 256 1000 181 1000 m 256 150 l 894 150 q 916 159 907 150 q 925 181 925 168 l 925 819 q 916 841 925 832 q 894 850 907 850 l 256 850 q 234 841 243 850 q 225 819 225 832 l 225 181 q 234 159 225 168 q 256 150 243 150 m 622 1364 l 678 1139 l 528 1139 l 472 1364 l 622 1364 z "},"Ó":{"ha":1150,"x_min":75,"x_max":1075,"o":"m 256 1000 l 894 1000 q 1022 947 969 1000 q 1075 819 1075 894 l 1075 181 q 1022 53 1075 106 q 894 0 969 0 l 256 0 q 128 53 181 0 q 75 181 75 106 l 75 819 q 128 947 75 894 q 256 1000 181 1000 m 256 150 l 894 150 q 916 159 907 150 q 925 181 925 168 l 925 819 q 916 841 925 832 q 894 850 907 850 l 256 850 q 234 841 243 850 q 225 819 225 832 l 225 181 q 234 159 225 168 q 256 150 243 150 m 472 1139 l 528 1364 l 678 1364 l 622 1139 l 472 1139 z "},"Ô":{"ha":1150,"x_min":75,"x_max":1075,"o":"m 256 1000 l 894 1000 q 1022 947 969 1000 q 1075 819 1075 894 l 1075 181 q 1022 53 1075 106 q 894 0 969 0 l 256 0 q 128 53 181 0 q 75 181 75 106 l 75 819 q 128 947 75 894 q 256 1000 181 1000 m 256 150 l 894 150 q 916 159 907 150 q 925 181 925 168 l 925 819 q 916 841 925 832 q 894 850 907 850 l 256 850 q 234 841 243 850 q 225 819 225 832 l 225 181 q 234 159 225 168 q 256 150 243 150 m 508 1138 l 406 1138 l 524 1333 l 626 1333 l 744 1138 l 640 1138 l 575 1243 l 508 1138 z "},"Õ":{"ha":1150,"x_min":75,"x_max":1075,"o":"m 256 1000 l 894 1000 q 1022 947 969 1000 q 1075 819 1075 894 l 1075 181 q 1022 53 1075 106 q 894 0 969 0 l 256 0 q 128 53 181 0 q 75 181 75 106 l 75 819 q 128 947 75 894 q 256 1000 181 1000 m 256 150 l 894 150 q 916 159 907 150 q 925 181 925 168 l 925 819 q 916 841 925 832 q 894 850 907 850 l 256 850 q 234 841 243 850 q 225 819 225 832 l 225 181 q 234 159 225 168 q 256 150 243 150 m 711 1236 q 819 1272 765 1236 l 819 1169 q 711 1144 761 1144 q 575 1192 663 1144 q 433 1239 488 1239 q 331 1207 350 1239 l 331 1311 q 433 1331 376 1331 q 576 1286 488 1331 q 711 1236 664 1242 z "},"Ö":{"ha":1150,"x_min":75,"x_max":1075,"o":"m 256 1000 l 894 1000 q 1022 947 969 1000 q 1075 819 1075 894 l 1075 181 q 1022 53 1075 106 q 894 0 969 0 l 256 0 q 128 53 181 0 q 75 181 75 106 l 75 819 q 128 947 75 894 q 256 1000 181 1000 m 256 150 l 894 150 q 916 159 907 150 q 925 181 925 168 l 925 819 q 916 841 925 832 q 894 850 907 850 l 256 850 q 234 841 243 850 q 225 819 225 832 l 225 181 q 234 159 225 168 q 256 150 243 150 m 768 1289 l 768 1139 l 618 1139 l 618 1289 l 768 1289 m 532 1289 l 532 1139 l 382 1139 l 382 1289 l 532 1289 z "},"×":{"ha":758,"x_min":74,"x_max":685,"o":"m 685 708 l 685 688 l 476 417 l 685 146 l 685 125 l 507 125 l 379 300 l 251 125 l 74 125 l 74 146 l 281 417 l 74 688 l 74 708 l 251 708 l 379 533 l 507 708 l 685 708 z "},"Ù":{"ha":1150,"x_min":75,"x_max":1075,"o":"m 925 181 l 925 1000 l 1075 1000 l 1075 181 q 1022 53 1075 106 q 894 0 969 0 l 256 0 q 128 53 181 0 q 75 181 75 106 l 75 1000 l 225 1000 l 225 181 q 234 159 225 168 q 256 150 243 150 l 894 150 q 916 159 907 150 q 925 181 925 168 m 622 1364 l 678 1139 l 528 1139 l 472 1364 l 622 1364 z "},"Ú":{"ha":1150,"x_min":75,"x_max":1075,"o":"m 925 181 l 925 1000 l 1075 1000 l 1075 181 q 1022 53 1075 106 q 894 0 969 0 l 256 0 q 128 53 181 0 q 75 181 75 106 l 75 1000 l 225 1000 l 225 181 q 234 159 225 168 q 256 150 243 150 l 894 150 q 916 159 907 150 q 925 181 925 168 m 472 1139 l 528 1364 l 678 1364 l 622 1139 l 472 1139 z "},"Û":{"ha":1150,"x_min":75,"x_max":1075,"o":"m 925 181 l 925 1000 l 1075 1000 l 1075 181 q 1022 53 1075 106 q 894 0 969 0 l 256 0 q 128 53 181 0 q 75 181 75 106 l 75 1000 l 225 1000 l 225 181 q 234 159 225 168 q 256 150 243 150 l 894 150 q 916 159 907 150 q 925 181 925 168 m 508 1138 l 406 1138 l 524 1333 l 626 1333 l 744 1138 l 640 1138 l 575 1243 l 508 1138 z "},"Ü":{"ha":1150,"x_min":75,"x_max":1075,"o":"m 925 181 l 925 1000 l 1075 1000 l 1075 181 q 1022 53 1075 106 q 894 0 969 0 l 256 0 q 128 53 181 0 q 75 181 75 106 l 75 1000 l 225 1000 l 225 181 q 234 159 225 168 q 256 150 243 150 l 894 150 q 916 159 907 150 q 925 181 925 168 m 768 1289 l 768 1139 l 618 1139 l 618 1289 l 768 1289 m 532 1289 l 532 1139 l 382 1139 l 382 1289 l 532 1289 z "},"Ý":{"ha":1119,"x_min":24,"x_max":1096,"o":"m 918 1000 l 1096 1000 l 635 375 l 635 0 l 485 0 l 485 375 l 24 1000 l 200 1000 l 560 544 l 918 1000 m 457 1139 l 513 1364 l 663 1364 l 607 1139 l 457 1139 z "},"ß":{"ha":1157,"x_min":79,"x_max":1079,"o":"m 1079 850 l 1079 619 q 1044 514 1079 560 q 1079 408 1079 468 l 1079 181 q 1026 53 1079 106 q 899 0 974 0 l 379 0 l 379 150 l 899 150 q 920 159 911 150 q 929 181 929 168 l 929 408 q 920 430 929 421 q 899 439 911 439 l 379 439 l 379 574 l 899 574 q 920 583 911 574 q 929 604 929 592 l 929 818 q 920 840 929 831 q 899 849 911 849 l 260 849 q 238 840 247 849 q 229 818 229 831 l 229 0 l 79 0 l 79 819 q 132 947 79 894 q 260 1000 185 1000 l 899 1000 q 1017 957 965 1000 q 1079 850 1068 914 z "},"à":{"ha":1007,"x_min":72,"x_max":892,"o":"m 711 806 q 839 753 786 806 q 892 625 892 700 l 892 0 l 253 0 q 125 53 178 0 q 72 181 72 106 l 72 478 l 742 478 l 742 625 q 733 647 742 638 q 711 656 724 656 l 72 656 l 72 806 l 711 806 m 742 150 l 742 328 l 222 328 l 222 181 q 231 159 222 168 q 253 150 240 150 l 742 150 m 550 1222 l 606 997 l 456 997 l 400 1222 l 550 1222 z "},"á":{"ha":1007,"x_min":72,"x_max":892,"o":"m 711 806 q 839 753 786 806 q 892 625 892 700 l 892 0 l 253 0 q 125 53 178 0 q 72 181 72 106 l 72 478 l 742 478 l 742 625 q 733 647 742 638 q 711 656 724 656 l 72 656 l 72 806 l 711 806 m 742 150 l 742 328 l 222 328 l 222 181 q 231 159 222 168 q 253 150 240 150 l 742 150 m 400 997 l 456 1222 l 606 1222 l 550 997 l 400 997 z "},"â":{"ha":1007,"x_min":72,"x_max":892,"o":"m 711 806 q 839 753 786 806 q 892 625 892 700 l 892 0 l 253 0 q 125 53 178 0 q 72 181 72 106 l 72 478 l 742 478 l 742 625 q 733 647 742 638 q 711 656 724 656 l 72 656 l 72 806 l 711 806 m 742 150 l 742 328 l 222 328 l 222 181 q 231 159 222 168 q 253 150 240 150 l 742 150 m 436 997 l 333 997 l 451 1193 l 554 1193 l 672 997 l 568 997 l 503 1103 l 436 997 z "},"ã":{"ha":1007,"x_min":72,"x_max":892,"o":"m 711 806 q 839 753 786 806 q 892 625 892 700 l 892 0 l 253 0 q 125 53 178 0 q 72 181 72 106 l 72 478 l 742 478 l 742 625 q 733 647 742 638 q 711 656 724 656 l 72 656 l 72 806 l 711 806 m 742 150 l 742 328 l 222 328 l 222 181 q 231 159 222 168 q 253 150 240 150 l 742 150 m 639 1093 q 747 1129 693 1093 l 747 1026 q 639 1001 689 1001 q 503 1049 590 1001 q 361 1096 415 1096 q 258 1064 278 1096 l 258 1168 q 361 1188 304 1188 q 503 1143 415 1188 q 639 1093 592 1099 z "},"ä":{"ha":1007,"x_min":72,"x_max":892,"o":"m 711 806 q 839 753 786 806 q 892 625 892 700 l 892 0 l 253 0 q 125 53 178 0 q 72 181 72 106 l 72 478 l 742 478 l 742 625 q 733 647 742 638 q 711 656 724 656 l 72 656 l 72 806 l 711 806 m 742 150 l 742 328 l 222 328 l 222 181 q 231 159 222 168 q 253 150 240 150 l 742 150 m 696 1147 l 696 997 l 546 997 l 546 1147 l 696 1147 m 460 1147 l 460 997 l 310 997 l 310 1147 l 460 1147 z "},"å":{"ha":1007,"x_min":72,"x_max":892,"o":"m 711 806 q 839 753 786 806 q 892 625 892 700 l 892 0 l 253 0 q 125 53 178 0 q 72 181 72 106 l 72 478 l 742 478 l 742 625 q 733 647 742 638 q 711 656 724 656 l 72 656 l 72 806 l 711 806 m 742 150 l 742 328 l 222 328 l 222 181 q 231 159 222 168 q 253 150 240 150 l 742 150 m 464 1219 l 542 1219 q 594 1198 572 1219 q 617 1146 617 1176 l 617 1071 q 594 1019 617 1040 q 542 997 572 997 l 464 997 q 411 1019 433 997 q 389 1071 389 1040 l 389 1146 q 411 1198 389 1176 q 464 1219 433 1219 m 457 1053 l 549 1053 q 561 1067 561 1053 l 561 1150 q 549 1164 561 1164 l 457 1164 q 444 1150 444 1164 l 444 1067 q 457 1053 444 1053 z "},"æ":{"ha":1636,"x_min":74,"x_max":1563,"o":"m 1382 806 q 1510 753 1457 806 q 1563 625 1563 700 l 1563 328 l 893 328 l 893 176 q 924 150 896 150 l 1563 150 l 1563 0 l 254 0 q 126 53 179 0 q 74 181 74 106 l 74 478 l 743 478 l 743 625 q 734 647 743 638 q 713 656 725 656 l 74 656 l 74 806 l 1382 806 m 743 150 l 743 328 l 224 328 l 224 181 q 233 159 224 168 q 254 150 242 150 l 743 150 m 893 478 l 1413 478 l 1413 625 q 1403 647 1413 638 q 1382 656 1394 656 l 924 656 q 902 647 911 656 q 893 625 893 638 l 893 478 z "},"ç":{"ha":963,"x_min":71,"x_max":890,"o":"m 251 150 l 890 150 l 890 0 l 251 0 q 124 53 176 0 q 71 181 71 106 l 71 625 q 124 753 71 700 q 251 806 176 806 l 888 806 l 888 656 l 251 656 q 230 647 239 656 q 221 625 221 638 l 221 181 q 230 159 221 168 q 251 150 239 150 m 378 -225 l 433 0 l 583 0 l 528 -225 l 378 -225 z "},"è":{"ha":886,"x_min":71,"x_max":890,"o":"m 710 806 q 838 753 785 806 q 890 625 890 700 l 890 328 l 221 328 l 221 181 q 230 159 221 168 q 251 150 239 150 l 890 150 l 890 0 l 251 0 q 124 53 176 0 q 71 181 71 106 l 71 625 q 124 753 71 700 q 251 806 176 806 l 710 806 m 221 478 l 740 478 l 740 625 q 731 647 740 638 q 710 656 722 656 l 251 656 q 230 647 239 656 q 221 625 221 638 l 221 478 m 490 1222 l 546 997 l 396 997 l 340 1222 l 490 1222 z "},"é":{"ha":886,"x_min":71,"x_max":890,"o":"m 710 806 q 838 753 785 806 q 890 625 890 700 l 890 328 l 221 328 l 221 181 q 230 159 221 168 q 251 150 239 150 l 890 150 l 890 0 l 251 0 q 124 53 176 0 q 71 181 71 106 l 71 625 q 124 753 71 700 q 251 806 176 806 l 710 806 m 221 478 l 740 478 l 740 625 q 731 647 740 638 q 710 656 722 656 l 251 656 q 230 647 239 656 q 221 625 221 638 l 221 478 m 340 999 l 396 1224 l 546 1224 l 490 999 l 340 999 z "},"ê":{"ha":886,"x_min":71,"x_max":890,"o":"m 710 806 q 838 753 785 806 q 890 625 890 700 l 890 328 l 221 328 l 221 181 q 230 159 221 168 q 251 150 239 150 l 890 150 l 890 0 l 251 0 q 124 53 176 0 q 71 181 71 106 l 71 625 q 124 753 71 700 q 251 806 176 806 l 710 806 m 221 478 l 740 478 l 740 625 q 731 647 740 638 q 710 656 722 656 l 251 656 q 230 647 239 656 q 221 625 221 638 l 221 478 m 376 997 l 274 997 l 392 1193 l 494 1193 l 613 997 l 508 997 l 443 1103 l 376 997 z "},"ë":{"ha":886,"x_min":71,"x_max":890,"o":"m 710 806 q 838 753 785 806 q 890 625 890 700 l 890 328 l 221 328 l 221 181 q 230 159 221 168 q 251 150 239 150 l 890 150 l 890 0 l 251 0 q 124 53 176 0 q 71 181 71 106 l 71 625 q 124 753 71 700 q 251 806 176 806 l 710 806 m 221 478 l 740 478 l 740 625 q 731 647 740 638 q 710 656 722 656 l 251 656 q 230 647 239 656 q 221 625 221 638 l 221 478 m 636 1147 l 636 997 l 486 997 l 486 1147 l 636 1147 m 400 1147 l 400 997 l 250 997 l 250 1147 l 400 1147 z "},"ì":{"ha":297,"x_min":22,"x_max":228,"o":"m 78 0 l 78 806 l 228 806 l 228 0 l 78 0 m 172 1224 l 228 999 l 78 999 l 22 1224 l 172 1224 z "},"í":{"ha":297,"x_min":68,"x_max":274,"o":"m 71 0 l 71 806 l 221 806 l 221 0 l 71 0 m 68 997 l 124 1222 l 274 1222 l 218 997 l 68 997 z "},"î":{"ha":297,"x_min":-21,"x_max":318,"o":"m 71 0 l 71 806 l 221 806 l 221 0 l 71 0 m 82 997 l -21 997 l 97 1193 l 200 1193 l 318 997 l 214 997 l 149 1103 l 82 997 z "},"ï":{"ha":297,"x_min":-44,"x_max":342,"o":"m 76 0 l 76 806 l 226 806 l 226 0 l 76 0 m 342 1150 l 342 1000 l 192 1000 l 192 1150 l 342 1150 m 106 1150 l 106 1000 l -44 1000 l -44 1150 l 106 1150 z "},"ñ":{"ha":983,"x_min":75,"x_max":894,"o":"m 714 806 q 842 753 789 806 q 894 625 894 700 l 894 0 l 744 0 l 744 625 q 735 647 744 638 q 714 656 726 656 l 256 656 q 234 647 243 656 q 225 625 225 638 l 225 0 l 75 0 l 75 806 l 714 806 m 628 1092 q 736 1128 682 1092 l 736 1025 q 628 1000 678 1000 q 492 1047 579 1000 q 350 1094 404 1094 q 247 1063 267 1094 l 247 1167 q 350 1186 293 1186 q 492 1142 404 1186 q 628 1092 581 1097 z "},"ò":{"ha":961,"x_min":71,"x_max":890,"o":"m 251 806 l 710 806 q 838 753 785 806 q 890 625 890 700 l 890 181 q 838 53 890 106 q 710 0 785 0 l 251 0 q 124 53 176 0 q 71 181 71 106 l 71 625 q 124 753 71 700 q 251 806 176 806 m 710 656 l 251 656 q 230 647 239 656 q 221 625 221 638 l 221 181 q 230 159 221 168 q 251 150 239 150 l 710 150 q 731 159 722 150 q 740 181 740 168 l 740 625 q 731 647 740 638 q 710 656 722 656 m 528 1224 l 583 999 l 433 999 l 378 1224 l 528 1224 z "},"ó":{"ha":961,"x_min":71,"x_max":890,"o":"m 251 806 l 710 806 q 838 753 785 806 q 890 625 890 700 l 890 181 q 838 53 890 106 q 710 0 785 0 l 251 0 q 124 53 176 0 q 71 181 71 106 l 71 625 q 124 753 71 700 q 251 806 176 806 m 710 656 l 251 656 q 230 647 239 656 q 221 625 221 638 l 221 181 q 230 159 221 168 q 251 150 239 150 l 710 150 q 731 159 722 150 q 740 181 740 168 l 740 625 q 731 647 740 638 q 710 656 722 656 m 378 999 l 433 1224 l 583 1224 l 528 999 l 378 999 z "},"ô":{"ha":961,"x_min":71,"x_max":890,"o":"m 251 806 l 710 806 q 838 753 785 806 q 890 625 890 700 l 890 181 q 838 53 890 106 q 710 0 785 0 l 251 0 q 124 53 176 0 q 71 181 71 106 l 71 625 q 124 753 71 700 q 251 806 176 806 m 710 656 l 251 656 q 230 647 239 656 q 221 625 221 638 l 221 181 q 230 159 221 168 q 251 150 239 150 l 710 150 q 731 159 722 150 q 740 181 740 168 l 740 625 q 731 647 740 638 q 710 656 722 656 m 414 997 l 311 997 l 429 1193 l 532 1193 l 650 997 l 546 997 l 481 1103 l 414 997 z "},"õ":{"ha":961,"x_min":71,"x_max":890,"o":"m 251 806 l 710 806 q 838 753 785 806 q 890 625 890 700 l 890 181 q 838 53 890 106 q 710 0 785 0 l 251 0 q 124 53 176 0 q 71 181 71 106 l 71 625 q 124 753 71 700 q 251 806 176 806 m 710 656 l 251 656 q 230 647 239 656 q 221 625 221 638 l 221 181 q 230 159 221 168 q 251 150 239 150 l 710 150 q 731 159 722 150 q 740 181 740 168 l 740 625 q 731 647 740 638 q 710 656 722 656 m 617 1092 q 725 1128 671 1092 l 725 1025 q 617 1000 667 1000 q 481 1047 568 1000 q 339 1094 393 1094 q 236 1063 256 1094 l 236 1167 q 339 1186 282 1186 q 481 1142 393 1186 q 617 1092 569 1097 z "},"ö":{"ha":961,"x_min":71,"x_max":890,"o":"m 251 806 l 710 806 q 838 753 785 806 q 890 625 890 700 l 890 181 q 838 53 890 106 q 710 0 785 0 l 251 0 q 124 53 176 0 q 71 181 71 106 l 71 625 q 124 753 71 700 q 251 806 176 806 m 710 656 l 251 656 q 230 647 239 656 q 221 625 221 638 l 221 181 q 230 159 221 168 q 251 150 239 150 l 710 150 q 731 159 722 150 q 740 181 740 168 l 740 625 q 731 647 740 638 q 710 656 722 656 m 674 1150 l 674 1000 l 524 1000 l 524 1150 l 674 1150 m 438 1150 l 438 1000 l 288 1000 l 288 1150 l 438 1150 z "},"÷":{"ha":697,"x_min":25,"x_max":692,"o":"m 692 486 l 692 336 l 25 336 l 25 486 l 692 486 m 279 150 l 429 150 l 429 0 l 279 0 l 279 150 m 429 817 l 429 667 l 279 667 l 279 817 l 429 817 z "},"ù":{"ha":965,"x_min":74,"x_max":893,"o":"m 743 806 l 893 806 l 893 181 q 840 53 893 106 q 713 0 788 0 l 254 0 q 126 53 179 0 q 74 181 74 106 l 74 806 l 224 806 l 224 181 q 233 159 224 168 q 254 150 242 150 l 713 150 q 734 159 725 150 q 743 181 743 168 l 743 806 m 529 1224 l 585 999 l 435 999 l 379 1224 l 529 1224 z "},"ú":{"ha":965,"x_min":74,"x_max":893,"o":"m 743 806 l 893 806 l 893 181 q 840 53 893 106 q 713 0 788 0 l 254 0 q 126 53 179 0 q 74 181 74 106 l 74 806 l 224 806 l 224 181 q 233 159 224 168 q 254 150 242 150 l 713 150 q 734 159 725 150 q 743 181 743 168 l 743 806 m 379 999 l 435 1224 l 585 1224 l 529 999 l 379 999 z "},"û":{"ha":965,"x_min":74,"x_max":893,"o":"m 743 806 l 893 806 l 893 181 q 840 53 893 106 q 713 0 788 0 l 254 0 q 126 53 179 0 q 74 181 74 106 l 74 806 l 224 806 l 224 181 q 233 159 224 168 q 254 150 242 150 l 713 150 q 734 159 725 150 q 743 181 743 168 l 743 806 m 415 999 l 313 999 l 431 1194 l 533 1194 l 651 999 l 547 999 l 482 1104 l 415 999 z "},"ü":{"ha":965,"x_min":74,"x_max":893,"o":"m 743 806 l 893 806 l 893 181 q 840 53 893 106 q 713 0 788 0 l 254 0 q 126 53 179 0 q 74 181 74 106 l 74 806 l 224 806 l 224 181 q 233 159 224 168 q 254 150 242 150 l 713 150 q 734 159 725 150 q 743 181 743 168 l 743 806 m 675 1147 l 675 997 l 525 997 l 525 1147 l 675 1147 m 439 1147 l 439 997 l 289 997 l 289 1147 l 439 1147 z "},"ý":{"ha":956,"x_min":58,"x_max":878,"o":"m 878 308 l 878 306 l 878 -139 q 825 -267 878 -214 q 697 -319 772 -319 l 200 -319 l 200 -169 l 697 -169 q 719 -160 710 -169 q 728 -139 728 -151 l 728 0 l 239 0 q 111 53 164 0 q 58 181 58 106 l 58 803 l 208 803 l 208 181 q 217 159 208 168 q 239 150 226 150 l 697 150 q 719 159 710 150 q 728 181 728 168 l 728 803 l 878 803 l 878 308 m 375 999 l 431 1224 l 581 1224 l 525 999 l 375 999 z "},"ÿ":{"ha":956,"x_min":58,"x_max":878,"o":"m 878 308 l 878 306 l 878 -139 q 825 -267 878 -214 q 697 -319 772 -319 l 200 -319 l 200 -169 l 697 -169 q 719 -160 710 -169 q 728 -139 728 -151 l 728 0 l 239 0 q 111 53 164 0 q 58 181 58 106 l 58 803 l 208 803 l 208 181 q 217 159 208 168 q 239 150 226 150 l 697 150 q 719 159 710 150 q 728 181 728 168 l 728 803 l 878 803 l 878 308 m 671 1150 l 671 1000 l 521 1000 l 521 1150 l 671 1150 m 435 1150 l 435 1000 l 285 1000 l 285 1150 l 435 1150 z "},"ı":{"ha":297,"x_min":72,"x_max":222,"o":"m 72 0 l 72 806 l 222 806 l 222 0 l 72 0 z "},"Œ":{"ha":1908,"x_min":74,"x_max":1840,"o":"m 1074 850 l 1074 575 l 1690 575 l 1690 425 l 1074 425 l 1074 150 l 1840 150 l 1840 0 l 254 0 q 126 53 179 0 q 74 181 74 106 l 74 819 q 126 947 74 894 q 254 1000 179 1000 l 1840 1000 l 1840 850 l 1074 850 m 893 150 q 915 159 906 150 q 924 181 924 168 l 924 819 q 915 841 924 832 q 893 850 906 850 l 254 850 q 233 841 242 850 q 224 819 224 832 l 224 181 q 233 159 224 168 q 254 150 242 150 l 893 150 z "},"œ":{"ha":1635,"x_min":72,"x_max":1561,"o":"m 1561 328 l 892 328 l 892 181 q 901 159 892 168 q 922 150 910 150 l 1561 150 l 1561 0 l 253 0 q 125 53 178 0 q 72 181 72 106 l 72 625 q 125 753 72 700 q 253 806 178 806 l 1381 806 q 1508 753 1456 806 q 1561 625 1561 700 l 1561 328 m 922 656 q 901 647 910 656 q 892 625 892 638 l 892 478 l 1411 478 l 1411 625 q 1402 647 1411 638 q 1381 656 1393 656 l 922 656 m 711 150 q 733 159 724 150 q 742 181 742 168 l 742 625 q 733 647 742 638 q 711 656 724 656 l 253 656 q 231 647 240 656 q 222 625 222 638 l 222 181 q 231 159 222 168 q 253 150 240 150 l 711 150 z "},"Š":{"ha":1142,"x_min":71,"x_max":1071,"o":"m 1071 819 l 1071 761 l 921 761 l 921 819 q 912 841 921 832 q 890 850 903 850 l 251 850 q 230 841 239 850 q 221 819 221 832 l 221 606 q 230 584 221 593 q 251 575 239 575 l 890 575 q 1018 522 965 575 q 1071 394 1071 469 l 1071 181 q 1018 53 1071 106 q 890 0 965 0 l 251 0 q 124 53 176 0 q 71 181 71 106 l 71 239 l 221 239 l 221 181 q 230 159 221 168 q 251 150 239 150 l 890 150 q 912 159 903 150 q 921 181 921 168 l 921 394 q 912 416 921 407 q 890 425 903 425 l 251 425 q 124 478 176 425 q 71 606 71 531 l 71 819 q 124 947 71 894 q 251 1000 176 1000 l 890 1000 q 1018 947 965 1000 q 1071 819 1071 894 m 401 1333 l 504 1333 l 571 1228 l 636 1333 l 740 1333 l 622 1138 l 519 1138 l 401 1333 z "},"š":{"ha":954,"x_min":67,"x_max":886,"o":"m 886 625 l 886 594 l 736 594 l 736 625 q 727 647 736 638 q 706 656 718 656 l 247 656 q 226 647 235 656 q 217 625 217 638 l 217 508 q 226 487 217 496 q 247 478 235 478 l 706 478 q 833 425 781 478 q 886 297 886 372 l 886 181 q 833 53 886 106 q 706 0 781 0 l 247 0 q 119 53 172 0 q 67 181 67 106 l 67 211 l 217 211 l 217 181 q 226 159 217 168 q 247 150 235 150 l 706 150 q 727 159 718 150 q 736 181 736 168 l 736 297 q 727 319 736 310 q 706 328 718 328 l 247 328 q 119 381 172 328 q 67 508 67 433 l 67 625 q 119 753 67 700 q 247 806 172 806 l 706 806 q 833 753 781 806 q 886 625 886 700 m 307 1193 l 410 1193 l 476 1088 l 542 1193 l 646 1193 l 528 997 l 425 997 l 307 1193 z "},"Ÿ":{"ha":1119,"x_min":24,"x_max":1096,"o":"m 918 1000 l 1096 1000 l 635 375 l 635 0 l 485 0 l 485 375 l 24 1000 l 200 1000 l 560 544 l 918 1000 m 753 1289 l 753 1139 l 603 1139 l 603 1289 l 753 1289 m 517 1289 l 517 1139 l 367 1139 l 367 1289 l 517 1289 z "},"Ž":{"ha":1140,"x_min":71,"x_max":1071,"o":"m 71 850 l 71 1000 l 1071 1000 l 1071 822 l 271 150 l 1071 150 l 1071 0 l 71 0 l 71 178 l 871 850 l 71 850 m 400 1333 l 503 1333 l 569 1228 l 635 1333 l 739 1333 l 621 1138 l 518 1138 l 400 1333 z "},"ž":{"ha":969,"x_min":75,"x_max":894,"o":"m 75 656 l 75 806 l 894 806 l 894 628 l 275 150 l 894 150 l 894 0 l 75 0 l 75 178 l 694 656 l 75 656 m 315 1197 l 418 1197 l 485 1092 l 550 1197 l 654 1197 l 536 1001 l 433 1001 l 315 1197 z "},"ˆ":{"ha":417,"x_min":39,"x_max":378,"o":"m 142 1147 l 39 1147 l 157 1343 l 260 1343 l 378 1147 l 274 1147 l 208 1253 l 142 1147 z "},"ˇ":{"ha":413,"x_min":38,"x_max":376,"o":"m 38 1343 l 140 1343 l 207 1238 l 272 1343 l 376 1343 l 258 1147 l 156 1147 l 38 1343 z "},"˘":{"ha":399,"x_min":56,"x_max":342,"o":"m 271 1265 l 342 1265 l 342 1256 q 311 1180 342 1211 q 235 1149 281 1149 l 163 1149 q 86 1180 117 1149 q 56 1256 56 1211 l 56 1265 l 126 1265 l 126 1240 q 146 1221 126 1221 l 251 1221 q 271 1240 271 1221 l 271 1265 z "},"˙":{"ha":324,"x_min":63,"x_max":263,"o":"m 138 1344 l 188 1344 q 240 1323 218 1344 q 263 1271 263 1301 l 263 1224 q 240 1172 263 1193 q 188 1150 218 1150 l 138 1150 q 85 1172 107 1150 q 63 1224 63 1193 l 63 1271 q 85 1323 63 1301 q 138 1344 107 1344 z "},"˚":{"ha":324,"x_min":49,"x_max":276,"o":"m 124 1372 l 201 1372 q 254 1351 232 1372 q 276 1299 276 1329 l 276 1224 q 254 1172 276 1193 q 201 1150 232 1150 l 124 1150 q 71 1172 93 1150 q 49 1224 49 1193 l 49 1299 q 71 1351 49 1329 q 124 1372 93 1372 m 117 1206 l 208 1206 q 221 1219 221 1206 l 221 1303 q 208 1317 221 1317 l 117 1317 q 104 1303 104 1317 l 104 1219 q 117 1206 104 1206 z "},"˜":{"ha":560,"x_min":32,"x_max":521,"o":"m 413 1246 q 521 1282 467 1246 l 521 1179 q 413 1154 463 1154 q 276 1201 364 1154 q 135 1249 189 1249 q 32 1217 51 1249 l 32 1321 q 135 1340 78 1340 q 277 1296 189 1340 q 413 1246 365 1251 z "},"–":{"ha":983,"x_min":75,"x_max":908,"o":"m 908 485 l 908 335 l 75 335 l 75 485 l 908 485 z "},"—":{"ha":1142,"x_min":75,"x_max":1067,"o":"m 1067 485 l 1067 335 l 75 335 l 75 485 l 1067 485 z "},"‘":{"ha":269,"x_min":47,"x_max":197,"o":"m 197 672 l 47 672 l 47 822 q 90 939 47 889 q 197 1000 133 989 l 197 672 z "},"’":{"ha":268,"x_min":75,"x_max":225,"o":"m 75 1000 l 225 1000 l 225 850 q 182 733 225 783 q 75 672 139 683 l 75 1000 z "},"“":{"ha":525,"x_min":64,"x_max":451,"o":"m 214 672 l 64 672 l 64 822 q 107 939 64 889 q 214 1000 150 989 l 214 672 m 451 672 l 301 672 l 301 822 q 344 939 301 889 q 451 1000 388 989 l 451 672 z "},"”":{"ha":525,"x_min":75,"x_max":463,"o":"m 313 1000 l 463 1000 l 463 850 q 419 733 463 783 q 313 672 376 683 l 313 1000 m 75 1000 l 225 1000 l 225 850 q 182 733 225 783 q 75 672 139 683 l 75 1000 z "},"•":{"ha":515,"x_min":182,"x_max":332,"o":"m 240 572 l 272 572 q 332 514 332 572 l 332 486 q 272 428 332 428 l 240 428 q 182 486 182 428 l 182 514 q 240 572 182 572 z "},"…":{"ha":797,"x_min":75,"x_max":722,"o":"m 225 150 l 225 0 l 75 0 l 75 150 l 225 150 m 722 150 l 722 0 l 572 0 l 572 150 l 722 150 m 474 150 l 474 0 l 324 0 l 324 150 l 474 150 z "},"€":{"ha":1110,"x_min":49,"x_max":1046,"o":"m 368 150 l 1046 150 l 1046 0 l 368 0 q 240 53 293 0 q 188 181 188 106 l 188 303 l 49 303 l 49 453 l 188 453 l 188 547 l 49 547 l 49 697 l 188 697 l 188 819 q 240 947 188 894 q 368 1000 293 1000 l 1046 1000 l 1046 850 l 368 850 q 347 841 356 850 q 338 819 338 832 l 338 697 l 896 697 l 896 547 l 338 547 l 338 453 l 896 453 l 896 303 l 338 303 l 338 181 q 347 159 338 168 q 368 150 356 150 z "},"−":{"ha":718,"x_min":82,"x_max":638,"o":"m 638 486 l 638 336 l 82 336 l 82 486 l 638 486 z "},"":{"ha":0,"x_min":0,"x_max":0,"o":""},"":{"ha":1071,"x_min":64,"x_max":1064,"o":"m 64 1000 l 886 1000 l 1064 1000 l 1064 979 l 242 0 l 64 0 l 64 21 l 760 850 l 64 850 l 64 1000 z "},"":{"ha":1089,"x_min":17,"x_max":1017,"o":"m 197 997 l 836 997 q 964 944 911 997 q 1017 817 1017 892 l 1017 0 l 867 0 l 867 378 q 858 399 867 390 q 836 408 849 408 l 197 408 q 69 461 122 408 q 17 589 17 514 l 17 817 q 69 944 17 892 q 197 997 122 997 m 607 558 l 867 558 l 867 817 q 858 838 867 829 q 836 847 849 847 l 197 847 q 176 838 185 847 q 167 817 167 829 l 167 589 q 176 567 167 576 q 197 558 185 558 l 607 558 z "},"":{"ha":1132,"x_min":68,"x_max":1065,"o":"m 1065 660 l 915 582 l 218 219 l 218 150 l 1065 150 l 1065 0 l 246 0 q 133 40 182 0 q 69 142 83 81 l 68 311 l 915 751 l 915 850 l 249 850 q 227 841 236 850 q 218 819 218 832 l 218 743 l 68 743 l 68 819 q 121 947 68 894 q 249 1000 174 1000 l 888 1000 q 1004 957 954 1000 q 1065 850 1054 914 l 1065 660 z "},"":{"ha":926,"x_min":38,"x_max":896,"o":"m 604 533 l 594 533 l 604 533 m 215 1000 l 715 1000 q 843 947 790 1000 q 896 819 896 894 l 896 564 q 843 436 896 489 q 715 383 790 383 l 451 383 q 430 374 439 383 q 421 353 421 365 l 421 210 l 271 210 l 271 353 q 324 481 271 428 q 451 533 376 533 l 715 533 q 737 542 728 533 q 746 564 746 551 l 746 819 q 737 841 746 832 q 715 850 728 850 l 188 850 l 188 700 l 38 700 l 38 850 q 99 957 49 914 q 215 1000 149 1000 m 421 0 l 271 0 l 271 150 l 421 150 l 421 0 z "},"":{"ha":1004,"x_min":13,"x_max":971,"o":"m 824 404 l 971 404 l 971 254 l 824 254 l 824 0 l 674 0 l 674 254 l 13 254 l 13 404 l 521 1000 l 671 1000 l 671 931 l 194 404 l 674 404 l 674 611 l 824 611 l 824 404 z "},"":{"ha":1571,"x_min":0,"x_max":1526,"o":"m 0 1000 l 178 1000 l 850 200 l 850 594 l 526 979 l 526 1000 l 704 1000 l 1376 200 l 1376 1000 l 1526 1000 l 1526 0 l 1349 0 l 1000 415 l 1000 0 l 822 0 l 0 979 l 0 1000 z "},"":{"ha":1596,"x_min":65,"x_max":1592,"o":"m 1414 1000 l 1592 1000 l 1592 979 l 769 0 l 592 0 l 592 415 l 243 0 l 65 0 l 65 1000 l 215 1000 l 215 200 l 888 1000 l 1065 1000 l 1065 979 l 742 594 l 742 200 l 1414 1000 z "},"":{"ha":1075,"x_min":75,"x_max":1075,"o":"m 75 1000 l 225 1000 l 225 200 l 897 1000 l 1075 1000 l 1075 979 l 253 0 l 75 0 l 75 1000 z "},"":{"ha":1075,"x_min":0,"x_max":1000,"o":"m 0 0 l 0 21 l 822 1000 l 1000 1000 l 1000 0 l 850 0 l 850 267 l 401 267 l 178 0 l 0 0 m 850 800 l 528 417 l 850 417 l 850 800 z "},"":{"ha":1075,"x_min":75,"x_max":1075,"o":"m 75 1000 l 253 1000 l 1075 21 l 1075 0 l 897 0 l 672 267 l 225 267 l 225 0 l 75 0 l 75 1000 m 225 800 l 225 417 l 547 417 l 225 800 z "}}}
